# xmcd CD database file
#
# Track frame offsets:
#	187
#	19537
#	33187
#	51787
#	70612
#	93337
#	113550
#	130237
#	144187
#	165187
#	186975
#	204787
#
# Disc length: 3002 seconds
#
# Revision: 3
# Processed by: cddbd v1.5.1PL0 Copyright (c) Steve Scherf et al.
# Submitted via: cdripper 1.0.7
#
DISCID=8a0bb80c
DTITLE=James Montgomery Band - The Oven Is On
DYEAR=1991
DGENRE=Blues
TTITLE0=Back From The Dead
TTITLE1=The Oven Is On
TTITLE2=Mystery
TTITLE3=Little Black Dress
TTITLE4=Dangerzone
TTITLE5=Nobody Could Love You
TTITLE6=Down In Florida
TTITLE7=Rock and Roll VJ
TTITLE8=Miss You
TTITLE9=Yonders Wall
TTITLE10=Dance
TTITLE11=Smokey´s Barbecue
EXTD=YEAR: 1991
EXTT0=
EXTT1=
EXTT2=
EXTT3=
EXTT4=
EXTT5=
EXTT6=
EXTT7=
EXTT8=
EXTT9=
EXTT10=
EXTT11=
PLAYORDER=
